# xmcd
#
# Track frame offsets:
#	150
#	8956
#	17694
#	26422
#	40145
#	48757
#	55045
#	71722
#	79758
#	87229
#	102888
#	112806
#	122875
#	133768
#	144484
#	158345
#
# Disc length: 2349 seconds
#
# Revision: 1
# Processed by: cddbd v1.5.2PL0 Copyright (c) Steve Scherf et al.
# Submitted via: audiograbber 1.83.01
#
DISCID=c1092b10
DTITLE=Hollowbelly - Hollowbelly
DYEAR=2011
DGENRE=Blues Punk
TTITLE0=Jolene
TTITLE1=Shotgun
TTITLE2=Going Back Up North
TTITLE3=You're A Mess
TTITLE4=Who Hid My Whiskey?
TTITLE5=Three Chords And The Truth
TTITLE6=I'm Old
TTITLE7=Downriver
TTITLE8=Southside Girl
TTITLE9=Long Road
TTITLE10=Big Love
TTITLE11=Gonna Cut You Down
TTITLE12=Hey There, Maggie
TTITLE13=Just Like You Do
TTITLE14=I Think I'm Coming Home
TTITLE15=Black Dog
EXTD=
EXTT0=
EXTT1=
EXTT2=
EXTT3=
EXTT4=
EXTT5=
EXTT6=
EXTT7=
EXTT8=
EXTT9=
EXTT10=
EXTT11=
EXTT12=
EXTT13=
EXTT14=
EXTT15=
PLAYORDER=
